<?xml version="1.0" encoding="utf-8"?>
<!-- Generator: Adobe Illustrator 22.1.0, SVG Export Plug-In . SVG Version: 6.00 Build 0)  -->
<svg version="1.1" id="Layer_1" xmlns="http://www.w3.org/2000/svg" xmlns:xlink="http://www.w3.org/1999/xlink" x="0px" y="0px"
	 viewBox="0 0 100 100" style="enable-background:new 0 0 100 100;" xml:space="preserve">
<g id="Layer_2_1_">
	<g>
		<g>
			<path class="fill" d="M90,94.6H10c-3.6,0-6.8-1.9-8.6-5s-1.8-6.8,0-9.9l40-69.3c1.8-3.1,5-5,8.6-5s6.8,1.9,8.6,5l40,69.3
				c1.8,3.1,1.8,6.8,0,9.9C96.9,92.7,93.6,94.6,90,94.6z M50,7.4c-2.8,0-5.4,1.5-6.8,4l-40,69.3c-1.4,2.5-1.4,5.4,0,7.9s4,4,6.8,4
				h80c2.9,0,5.4-1.5,6.8-3.9c1.4-2.5,1.4-5.4,0-7.9l-40-69.3C55.4,8.9,52.9,7.4,50,7.4z"/>
		</g>
		<g>
			<path class="fill" d="M50,77.3c-1,0-1.9-0.8-1.9-1.9l-2.5-47.3c0-1,0.6-4.2,4.3-4.2c4.3,0,4.3,3.2,4.3,4.2l-2.5,47.3
				C51.9,76.5,51,77.3,50,77.3z"/>
		</g>
		<circle cx="50" cy="82.7" r="3.4"/>
	</g>
</g>
</svg>
