<?xml version="1.0" encoding="utf-8"?>
<!-- Generator: Adobe Illustrator 22.1.0, SVG Export Plug-In . SVG Version: 6.00 Build 0)  -->
<svg version="1.1" id="Layer_1" xmlns="http://www.w3.org/2000/svg" xmlns:xlink="http://www.w3.org/1999/xlink" x="0px" y="0px"
	 viewBox="0 0 100 100" style="enable-background:new 0 0 100 100;" xml:space="preserve">
<g>
	<path d="M50,0c7.9,0,15.2,3.2,20.4,8.5c5.3,5.2,8.5,12.4,8.5,20.4v42.2c0,7.9-3.2,15.2-8.5,20.4C65.1,96.8,57.9,100,50,100
		s-15.2-3.2-20.4-8.5c-5.3-5.2-8.5-12.4-8.5-20.4V28.9c0-7.9,3.2-15.2,8.5-20.4C34.8,3.2,42,0,50,0z M59.9,9.4
		c-1.8-0.7-3.4-0.9-4.9-0.8c-1.8,0.2-3.2,0.8-4.4,1.6c-1.6,1.1-2.7,2.6-3.2,4c-0.3,0.7-0.3,1.4-0.2,2c0.1,0.5,0.3,0.9,0.7,1.2
		c0.6,0.4,1.4,0.6,2.6,0.6c0.8,0,1.3-0.3,1.7-0.6c0.4-0.3,0.6-0.8,0.7-1.3c0.1-0.5,0.1-1.1,0-1.6s-0.3-0.9-0.6-1
		c-0.5-0.3-0.7-1-0.4-1.5s1-0.7,1.5-0.4c0.8,0.5,1.3,1.4,1.6,2.4c0.2,0.8,0.2,1.7,0,2.5c-0.2,0.9-0.6,1.8-1.3,2.4
		c-0.7,0.7-1.8,1.2-3.1,1.2c-1.7,0-3-0.4-3.9-1.1c-0.9-0.6-1.4-1.6-1.6-2.6c-0.2-0.9-0.1-2,0.3-3.1c0.6-1.8,2.1-3.8,4.1-5.1
		c0.8-0.5,1.6-1,2.6-1.3C51.3,7,50.7,7,50,7c-6,0-11.5,2.5-15.5,6.5c-3.9,3.9-6.4,9.4-6.4,15.5s2.5,11.5,6.4,15.5
		c0.6,0.6,1.1,1,1.7,1.5v-6.2c0-0.6,0.5-1.1,1.1-1.1s1.1,0.5,1.1,1.1v7.8c3.4,2.1,7.4,3.4,11.7,3.4s8.3-1.2,11.7-3.4v-7.8
		c0-0.6,0.5-1.1,1.1-1.1s1.1,0.5,1.1,1.1V46c0.6-0.5,1.2-0.9,1.7-1.5c4-4,6.4-9.4,6.4-15.5c0-6-2.4-11.5-6.4-15.5
		C63.9,11.8,62,10.4,59.9,9.4z M50,4.8c6.7,0,12.7,2.7,17.1,7.1s7.1,10.4,7.1,17c0,6.7-2.7,12.7-7.1,17.1S56.6,53,50,53
		s-12.6-2.7-17.1-7.1c-4.4-4.4-7.1-10.4-7.1-17.1c0-6.6,2.7-12.6,7.1-17C37.3,7.5,43.4,4.8,50,4.8z M50,37.2c-1.3,0-2.7,0.5-3.6,1.4
		c-0.9,0.7-1.4,1.8-1.4,3.1c0,0.1,0,0.2,0,0.2c0,0.2,0.2,0.4,0.3,0.5c0.2,0.2,0.5,0.2,0.8,0.2c0.2,0,0.3,0,0.5,0
		c0.3-0.1,0.7-0.3,1.1-0.6c0.7-0.4,1.4-0.8,2.2-0.8c0.9,0,1.6,0.4,2.2,0.8c0.4,0.3,0.8,0.5,1.2,0.6c0.1,0,0.3,0,0.5,0
		c0.3,0,0.6,0,0.9-0.2c0.2-0.1,0.3-0.3,0.3-0.5c0,0,0-0.1,0-0.2c0-1.3-0.6-2.4-1.4-3.1C52.7,37.6,51.3,37.2,50,37.2z M44.9,36.9
		c1.4-1.2,3.2-1.9,5.1-1.9c1.9,0,3.8,0.7,5.1,1.9c1.2,1.2,2.1,2.7,2.1,4.7c0,0.2,0,0.4-0.1,0.6c-0.2,0.8-0.6,1.5-1.2,1.8
		c-0.6,0.4-1.3,0.6-2.1,0.6c-0.3,0-0.6,0-0.9-0.1c-0.7-0.2-1.3-0.5-1.8-0.8c-0.4-0.3-0.8-0.5-1.1-0.5s-0.7,0.3-1.1,0.5
		c-0.6,0.3-1.1,0.6-1.8,0.8c-0.3,0.1-0.6,0.1-0.9,0.1c-0.8,0-1.5-0.2-2.1-0.6c-0.6-0.4-1.1-1-1.2-1.8c0-0.2,0-0.4,0-0.6
		C42.8,39.7,43.6,38.1,44.9,36.9z M63.8,34.4c0,0.6-0.5,1.1-1.1,1.1s-1.1-0.5-1.1-1.1V32c0-0.6,0.5-1.1,1.1-1.1s1.1,0.5,1.1,1.1
		V34.4z M57.2,25.1c-0.6,0-1.1-0.5-1.1-1.1s0.5-1.1,1.1-1.1c1.5,0,2.7,0.2,3.8,0.8c1.1,0.5,2,1.3,2.6,2.5c0.3,0.5,0.2,1.2-0.3,1.5
		s-1.2,0.2-1.5-0.3c-0.5-0.8-1.1-1.3-1.8-1.7C59.3,25.3,58.4,25.1,57.2,25.1z M38.3,34.4c0,0.6-0.5,1.1-1.1,1.1s-1.1-0.5-1.1-1.1V32
		c0-0.6,0.5-1.1,1.1-1.1s1.1,0.5,1.1,1.1V34.4z M42.8,22.9c0.6,0,1.1,0.5,1.1,1.1s-0.5,1.1-1.1,1.1c-1.2,0-2.1,0.2-2.8,0.5
		s-1.3,0.9-1.8,1.7c-0.3,0.5-1,0.7-1.5,0.3c-0.5-0.3-0.7-1-0.4-1.5c0.7-1.2,1.6-2,2.7-2.5C40,23.2,41.3,22.9,42.8,22.9z M23.3,62.9
		c6.2,6.5,13.4,11.5,21.5,15.5c8.1,3.9,17.1,6.6,26.8,8.4c2.6-3.5,4.4-7.7,4.9-12.3c-10.9-1.6-21-4.3-30.2-8.3
		c-8.6-3.8-16.4-8.9-23-15.5C23.3,50.7,23.3,62.9,23.3,62.9z M70,88.8c-9.4-1.8-18.2-4.6-26.2-8.4c-7.6-3.7-14.6-8.4-20.6-14.3v5
		c0,7.4,3,14,7.9,18.8c4.8,4.9,11.5,7.9,18.8,7.9s14.1-3,18.9-7.9C69.3,89.6,69.6,89.2,70,88.8z M76.7,50.7c-3.4,3.3-7.1,6.3-11,8.9
		c-4,2.6-8.2,4.9-12.8,6.9c7.4,2.7,15.3,4.6,23.8,5.9c0-0.4,0-0.9,0-1.3V50.7z M50,65.4c5.2-2.1,10-4.6,14.5-7.6
		c4.4-2.9,8.5-6.3,12.2-10.1V28.9c0-7.4-3-14-7.9-18.8C64,5.2,57.3,2.2,50,2.2s-14,3-18.8,7.9c-4.9,4.8-7.9,11.5-7.9,18.8v18.8
		c6.8,7.1,14.8,12.5,23.9,16.5C48.1,64.6,49,65,50,65.4z"/>
</g>
</svg>
