<?xml version="1.0" encoding="utf-8"?>
<!-- Generator: Adobe Illustrator 22.1.0, SVG Export Plug-In . SVG Version: 6.00 Build 0)  -->
<svg version="1.1" xmlns="http://www.w3.org/2000/svg" xmlns:xlink="http://www.w3.org/1999/xlink" x="0px" y="0px"
	 viewBox="0 0 100 100" style="enable-background:new 0 0 100 100;" xml:space="preserve">
<g id="Layer_1">
	<g>
		<path class="fill" d="M218,0.7c7.9,0,15.2,3.2,20.4,8.5c5.3,5.2,8.5,12.4,8.5,20.4v42.2c0,7.9-3.2,15.2-8.5,20.4c-5.3,5.3-12.5,8.5-20.4,8.5
			c-7.9,0-15.2-3.2-20.4-8.5c-5.3-5.2-8.5-12.4-8.5-20.4V29.6c0-7.9,3.2-15.2,8.5-20.4C202.8,4,210,0.7,218,0.7z M227.9,10.1
			c-1.8-0.7-3.4-0.9-4.9-0.8c-1.8,0.2-3.2,0.8-4.4,1.6c-1.6,1.1-2.7,2.6-3.2,4c-0.3,0.7-0.3,1.4-0.2,2c0.1,0.5,0.3,0.9,0.7,1.2
			c0.6,0.4,1.4,0.6,2.6,0.6c0.8,0,1.3-0.3,1.7-0.6c0.4-0.3,0.6-0.8,0.7-1.3s0.1-1.1,0-1.6c-0.1-0.5-0.3-0.9-0.6-1
			c-0.5-0.3-0.7-1-0.4-1.5s1-0.7,1.5-0.4c0.8,0.5,1.3,1.4,1.6,2.4c0.2,0.8,0.2,1.7,0,2.5c-0.2,0.9-0.6,1.8-1.3,2.4
			c-0.7,0.7-1.8,1.2-3.1,1.2c-1.7,0-3-0.4-3.9-1.1c-0.9-0.6-1.4-1.6-1.6-2.6c-0.2-0.9-0.1-2,0.3-3.1c0.6-1.8,2.1-3.8,4.1-5.1
			c0.8-0.5,1.6-1,2.6-1.3c-0.6,0-1.3-0.1-2-0.1c-6,0-11.5,2.5-15.5,6.5c-3.9,3.9-6.4,9.4-6.4,15.5c0,6.1,2.5,11.5,6.4,15.5
			c0.6,0.6,1.1,1,1.7,1.5v-6.2c0-0.6,0.5-1.1,1.1-1.1c0.6,0,1.1,0.5,1.1,1.1v7.8c3.4,2.1,7.4,3.4,11.7,3.4c4.3,0,8.3-1.2,11.7-3.4
			v-7.8c0-0.6,0.5-1.1,1.1-1.1c0.6,0,1.1,0.5,1.1,1.1v6.2c0.6-0.5,1.2-0.9,1.7-1.5c4-4,6.4-9.4,6.4-15.5c0-6-2.4-11.5-6.4-15.5
			C231.9,12.5,230,11.1,227.9,10.1z M218,5.5c6.7,0,12.7,2.7,17.1,7.1c4.4,4.4,7.1,10.4,7.1,17c0,6.7-2.7,12.7-7.1,17.1
			c-4.4,4.4-10.4,7.1-17.1,7.1c-6.6,0-12.6-2.7-17.1-7.1c-4.4-4.4-7.1-10.4-7.1-17.1c0-6.6,2.7-12.6,7.1-17
			C205.3,8.2,211.4,5.5,218,5.5z M218,37.9c-1.3,0-2.7,0.5-3.6,1.4c-0.9,0.7-1.4,1.8-1.4,3.1c0,0.1,0,0.2,0,0.2
			c0,0.2,0.2,0.4,0.3,0.5c0.2,0.2,0.5,0.2,0.8,0.2c0.2,0,0.3,0,0.5,0c0.3-0.1,0.7-0.3,1.1-0.6c0.7-0.4,1.4-0.8,2.2-0.8
			c0.9,0,1.6,0.4,2.2,0.8c0.4,0.3,0.8,0.5,1.2,0.6c0.1,0,0.3,0,0.5,0c0.3,0,0.6,0,0.9-0.2c0.2-0.1,0.3-0.3,0.3-0.5c0,0,0-0.1,0-0.2
			c0-1.3-0.6-2.4-1.4-3.1C220.7,38.4,219.3,37.9,218,37.9z M212.9,37.6c1.4-1.2,3.2-1.9,5.1-1.9c1.9,0,3.8,0.7,5.1,1.9
			c1.2,1.2,2.1,2.7,2.1,4.7c0,0.2,0,0.4-0.1,0.6c-0.2,0.8-0.6,1.5-1.2,1.8c-0.6,0.4-1.3,0.6-2.1,0.6c-0.3,0-0.6,0-0.9-0.1
			c-0.7-0.2-1.3-0.5-1.8-0.8c-0.4-0.3-0.8-0.5-1.1-0.5c-0.3,0-0.7,0.3-1.1,0.5c-0.6,0.3-1.1,0.6-1.8,0.8c-0.3,0.1-0.6,0.1-0.9,0.1
			c-0.8,0-1.5-0.2-2.1-0.6c-0.6-0.4-1.1-1-1.2-1.8c0-0.2,0-0.4,0-0.6C210.8,40.4,211.6,38.8,212.9,37.6z M231.8,35.1
			c0,0.6-0.5,1.1-1.1,1.1s-1.1-0.5-1.1-1.1v-2.4c0-0.6,0.5-1.1,1.1-1.1s1.1,0.5,1.1,1.1V35.1z M225.2,25.9c-0.6,0-1.1-0.5-1.1-1.1
			c0-0.6,0.5-1.1,1.1-1.1c1.5,0,2.7,0.2,3.8,0.8c1.1,0.5,2,1.3,2.6,2.5c0.3,0.5,0.2,1.2-0.3,1.5c-0.5,0.3-1.2,0.2-1.5-0.3
			c-0.5-0.8-1.1-1.3-1.8-1.7C227.3,26,226.4,25.9,225.2,25.9z M206.3,35.1c0,0.6-0.5,1.1-1.1,1.1c-0.6,0-1.1-0.5-1.1-1.1v-2.4
			c0-0.6,0.5-1.1,1.1-1.1c0.6,0,1.1,0.5,1.1,1.1V35.1z M210.8,23.7c0.6,0,1.1,0.5,1.1,1.1c0,0.6-0.5,1.1-1.1,1.1
			c-1.2,0-2.1,0.2-2.8,0.5c-0.7,0.3-1.3,0.9-1.8,1.7c-0.3,0.5-1,0.7-1.5,0.3c-0.5-0.3-0.7-1-0.4-1.5c0.7-1.2,1.6-2,2.7-2.5
			C208,23.9,209.3,23.7,210.8,23.7z M191.3,63.7c6.2,6.5,13.4,11.5,21.5,15.5c8.1,3.9,17.1,6.6,26.8,8.4c2.6-3.5,4.4-7.7,4.9-12.3
			c-10.9-1.6-21-4.3-30.2-8.3c-8.6-3.8-16.4-8.9-23-15.5C191.3,51.5,191.3,63.7,191.3,63.7z M238,89.5c-9.4-1.8-18.2-4.6-26.2-8.4
			c-7.6-3.7-14.6-8.4-20.6-14.3v5c0,7.4,3,14,7.9,18.8c4.8,4.9,11.5,7.9,18.8,7.9c7.4,0,14.1-3,18.9-7.9
			C237.3,90.3,237.6,89.9,238,89.5z M244.7,51.5c-3.4,3.3-7.1,6.3-11,8.9c-4,2.6-8.2,4.9-12.8,6.9c7.4,2.7,15.3,4.6,23.8,5.9
			c0-0.4,0-0.9,0-1.3C244.7,71.8,244.7,51.5,244.7,51.5z M218,66.1c5.2-2.1,10-4.6,14.5-7.6c4.4-2.9,8.5-6.3,12.2-10.1V29.6
			c0-7.4-3-14-7.9-18.8C232,5.9,225.3,2.9,218,2.9c-7.4,0-14,3-18.8,7.9c-4.9,4.8-7.9,11.5-7.9,18.8v18.8
			c6.8,7.1,14.8,12.5,23.9,16.5C216.1,65.3,217,65.7,218,66.1z"/>
	</g>
	<g>
		<path  class="fill" d="M170.5-182.5c7.9,0,15.2,3.2,20.4,8.5c5.2,5.2,8.5,12.5,8.5,20.4v42.2c0,7.9-3.2,15.2-8.5,20.4s-12.5,8.5-20.4,8.5
			c-8,0-15.2-3.2-20.4-8.5c-5.2-5.2-8.5-12.5-8.5-20.4v-42.2c0-8,3.2-15.2,8.5-20.4S162.5-182.5,170.5-182.5z M180.3-173.1
			c-1.8-0.7-3.4-0.9-4.9-0.7c-1.8,0.1-3.2,0.7-4.4,1.5c-1.6,1.1-2.7,2.6-3.2,4c-0.2,0.7-0.3,1.4-0.2,2c0.1,0.5,0.3,0.9,0.7,1.3
			c0.6,0.4,1.4,0.6,2.6,0.6c0.8,0,1.3-0.2,1.7-0.6c0.3-0.3,0.6-0.8,0.7-1.3c0.1-0.6,0.1-1.1,0-1.6c-0.1-0.5-0.3-0.9-0.6-1
			c-0.5-0.3-0.7-1-0.4-1.5c0.3-0.5,1-0.7,1.5-0.4c0.8,0.5,1.3,1.3,1.6,2.4c0.2,0.8,0.2,1.7,0,2.5c-0.2,0.9-0.6,1.8-1.3,2.4
			c-0.7,0.7-1.8,1.2-3.2,1.2c-1.7,0-3-0.4-3.9-1.1c-0.9-0.6-1.4-1.6-1.6-2.6c-0.2-1,0-2,0.3-3.1c0.6-1.9,2.1-3.8,4-5.1
			c0.8-0.5,1.6-0.9,2.6-1.3c-0.6,0-1.3,0-1.9,0c-6.1,0-11.5,2.5-15.5,6.4c-4,4-6.4,9.5-6.4,15.5c0,6,2.5,11.5,6.4,15.5
			c4,4,9.5,6.4,15.5,6.4c6,0,11.5-2.5,15.5-6.4c4-3.9,6.4-9.5,6.4-15.5c0-6.1-2.5-11.5-6.4-15.5
			C184.3-170.7,182.4-172.1,180.3-173.1z M170.5-177.6c6.6,0,12.7,2.7,17,7c4.4,4.4,7.1,10.4,7.1,17.1c0,6.6-2.7,12.7-7.1,17
			c-4.4,4.4-10.4,7.1-17,7.1c-6.7,0-12.7-2.7-17.1-7.1c-4.4-4.4-7.1-10.4-7.1-17c0-6.7,2.7-12.7,7.1-17.1
			C157.8-175,163.8-177.6,170.5-177.6z M166.1-140c-0.4-0.4-0.4-1.1,0-1.5c0.5-0.4,1.2-0.4,1.5,0.1c0.1,0.1,0.3,0.3,0.5,0.4
			c0.7,0.6,1.6,0.9,2.5,0.9c0.9,0,1.7-0.3,2.3-0.9c0.1-0.1,0.2-0.2,0.3-0.3c0.4-0.5,1.1-0.6,1.5-0.2c0.5,0.4,0.6,1.1,0.2,1.5
			c-0.2,0.2-0.4,0.4-0.6,0.6c-1,0.9-2.4,1.4-3.8,1.4c-1.3,0-2.7-0.5-3.8-1.3C166.5-139.5,166.2-139.7,166.1-140z M182.2-157
			c0.4-0.5,1.1-0.5,1.6-0.1c0.4,0.4,0.5,1.1,0,1.6c-0.2,0.2-0.4,0.4-0.7,0.6c-1.1,0.9-2.5,1.3-3.8,1.3c-1.3,0-2.7-0.5-3.8-1.4
			c-0.2-0.2-0.4-0.4-0.6-0.6c-0.4-0.5-0.3-1.2,0.2-1.5c0.5-0.4,1.2-0.3,1.5,0.2c0.1,0.1,0.2,0.2,0.3,0.4l0,0
			c0.6,0.6,1.4,0.8,2.3,0.8c0.8,0,1.8-0.3,2.5-0.8C182-156.7,182.1-156.9,182.2-157z M157-155.5c-0.4-0.5-0.4-1.2,0.1-1.6
			c0.4-0.4,1.1-0.4,1.5,0.1c0.1,0.1,0.3,0.3,0.4,0.4c0.7,0.6,1.6,0.8,2.5,0.8c0.8,0,1.7-0.3,2.3-0.8l0,0c0.1-0.1,0.2-0.2,0.3-0.4
			c0.4-0.5,1.1-0.6,1.5-0.2c0.5,0.4,0.6,1.1,0.2,1.5c-0.2,0.2-0.4,0.4-0.6,0.6c-1,0.9-2.4,1.4-3.8,1.4c-1.3,0-2.7-0.5-3.8-1.3
			C157.4-155.1,157.2-155.3,157-155.5z M143.7-119.5c6.2,6.5,13.4,11.5,21.6,15.4c8.1,3.9,17.1,6.7,26.8,8.4
			c2.6-3.5,4.3-7.7,4.9-12.3c-10.9-1.6-21-4.3-30.2-8.3c-8.6-3.8-16.4-8.9-23-15.4C143.7-131.7,143.7-119.5,143.7-119.5z
			 M190.4-93.7c-9.4-1.9-18.2-4.6-26.1-8.4c-7.6-3.7-14.6-8.4-20.6-14.3v5.1c0,7.3,3,14,7.8,18.9c4.9,4.9,11.5,7.8,18.9,7.8
			c7.3,0,14-3,18.9-7.8C189.7-92.8,190.1-93.3,190.4-93.7z M197.2-131.7c-3.4,3.3-7,6.3-11,8.9c-4,2.6-8.3,5-12.8,6.9
			c7.3,2.7,15.3,4.6,23.7,5.8c0-0.4,0-0.8,0-1.3C197.2-111.3,197.2-131.7,197.2-131.7z M170.4-117c5.2-2.1,10.1-4.6,14.6-7.6
			c4.4-2.9,8.5-6.3,12.2-10.2v-18.7c0-7.4-3-14-7.8-18.9c-4.9-4.8-11.5-7.8-18.9-7.8c-7.4,0-14,3-18.9,7.8
			c-4.8,4.9-7.8,11.5-7.8,18.9v18.7c6.8,7.1,14.8,12.5,23.9,16.6C168.6-117.8,169.5-117.5,170.4-117z"/>
	</g>
	<g>
		<path  class="fill" d="M295.4-243.9c6.6,0,12.7,2.7,17,7.1c4.4,4.3,7.1,10.4,7.1,17c0,6.6-2.7,12.7-7.1,17c-4.3,4.4-10.4,7.1-17,7.1
			c-6.7,0-12.7-2.7-17.1-7.1c-4.3-4.3-7-10.4-7-17c0-6.6,2.7-12.7,7-17C282.7-241.2,288.7-243.9,295.4-243.9z M289.1-204.9
			c-0.5,0.2-1.2,0-1.4-0.5c-0.2-0.5,0-1.2,0.5-1.4c4.2-2,8.9-2.3,14.3,0c0.6,0.2,0.8,0.9,0.6,1.4c-0.2,0.6-0.9,0.8-1.4,0.6
			C296.9-206.9,292.8-206.6,289.1-204.9z M286.8-223.4c1,0,1.8,1.3,1.8,2.8s-0.8,2.8-1.8,2.8c-1,0-1.8-1.3-1.8-2.8
			S285.9-223.4,286.8-223.4z M303.9-223.4c1,0,1.8,1.3,1.8,2.8s-0.8,2.8-1.8,2.8c-1,0-1.8-1.3-1.8-2.8S303-223.4,303.9-223.4z
			 M268.7-185.7c6.2,6.5,13.4,11.6,21.5,15.4c8.1,3.9,17.1,6.6,26.7,8.4c2.6-3.5,4.3-7.7,4.9-12.3c-10.9-1.6-21.1-4.3-30.2-8.3
			c-8.7-3.9-16.4-8.9-23-15.5C268.7-198,268.7-185.7,268.7-185.7z M315.4-159.9c-9.4-1.8-18.2-4.6-26.1-8.4
			c-7.7-3.7-14.6-8.4-20.6-14.3v5.1c0,7.3,3,14,7.8,18.9c4.8,4.8,11.5,7.8,18.9,7.8s14-3,18.9-7.8
			C314.7-159.1,315-159.5,315.4-159.9z M322.1-198c-3.4,3.4-7.1,6.3-11,8.9c-4,2.7-8.3,4.9-12.8,6.9c7.3,2.7,15.3,4.6,23.7,5.9
			c0-0.4,0-0.8,0-1.3C322.1-177.6,322.1-198,322.1-198z M295.4-183.3c5.2-2.1,10-4.6,14.5-7.6c4.4-2.9,8.5-6.3,12.2-10.1v-18.7
			c0-7.3-3-14-7.8-18.9c-4.8-4.8-11.5-7.8-18.9-7.8s-14,3-18.9,7.8c-4.8,4.8-7.8,11.5-7.8,18.9v18.7c6.8,7.1,14.8,12.5,23.9,16.5
			C293.5-184.1,294.4-183.7,295.4-183.3z M295.4-248.7c8,0,15.2,3.3,20.4,8.5c5.3,5.2,8.5,12.5,8.5,20.4v42.2c0,8-3.3,15.2-8.5,20.4
			c-5.2,5.3-12.4,8.5-20.4,8.5s-15.2-3.3-20.4-8.5c-5.2-5.2-8.5-12.4-8.5-20.4v-42.2c0-8,3.3-15.2,8.5-20.4
			C280.2-245.4,287.4-248.7,295.4-248.7z M305.3-239.3c-1.8-0.7-3.4-0.8-4.9-0.7c-1.7,0.2-3.3,0.8-4.4,1.6c-1.6,1.1-2.7,2.5-3.2,4
			c-0.2,0.7-0.4,1.4-0.2,2c0.1,0.5,0.4,1,0.8,1.3c0.5,0.4,1.4,0.6,2.6,0.6c0.7,0,1.3-0.2,1.7-0.6c0.4-0.4,0.6-0.8,0.7-1.3
			c0.1-0.5,0.1-1.1,0-1.6c-0.1-0.5-0.3-0.9-0.6-1c-0.5-0.3-0.7-1-0.4-1.5c0.3-0.5,1-0.7,1.5-0.4c0.8,0.5,1.3,1.4,1.6,2.4
			c0.2,0.8,0.2,1.7,0,2.6c-0.2,0.9-0.6,1.7-1.3,2.4c-0.7,0.7-1.8,1.2-3.1,1.2c-1.7,0-3-0.4-3.9-1.1c-0.9-0.7-1.4-1.6-1.6-2.6
			c-0.2-1-0.1-2,0.3-3.1c0.6-1.9,2.1-3.8,4.1-5.1c0.7-0.5,1.6-1,2.5-1.3c-0.6-0.1-1.3-0.1-1.9-0.1c-6.1,0-11.6,2.4-15.5,6.4
			c-4,4-6.4,9.5-6.4,15.5s2.5,11.5,6.4,15.5c4,4,9.4,6.4,15.5,6.4c6,0,11.5-2.4,15.5-6.4c4-4,6.4-9.5,6.4-15.5s-2.4-11.6-6.4-15.5
			C309.3-236.9,307.4-238.3,305.3-239.3z"/>
	</g>
	<g>
		<path  class="fill" d="M32.2-194c13.8,0,26.3,5.6,35.3,14.7c9.1,9,14.7,21.6,14.7,35.3c0,13.8-5.6,26.3-14.7,35.3C58.5-99.6,46-94,32.2-94
			c-13.9,0-26.3-5.6-35.4-14.7c-9-9-14.6-21.6-14.6-35.3s5.6-26.3,14.6-35.3C5.9-188.4,18.3-194,32.2-194z M45.1-120.3
			c1.1-0.5,2.4-0.1,3,1.1c0.5,1.1,0,2.4-1.1,3c-8.7,4.2-18.5,4.8-29.6,0c-1.2-0.4-1.7-1.8-1.2-2.9c0.5-1.2,1.8-1.7,3-1.2
			C29-116.2,37.5-116.7,45.1-120.3z M14.4-151.6c2.1,0,3.7,2.6,3.7,5.9c0,3.2-1.6,5.9-3.7,5.9c-2,0-3.7-2.6-3.7-5.9
			C10.7-148.9,12.4-151.6,14.4-151.6z M49.9-151.6c2.1,0,3.7,2.6,3.7,5.9c0,3.2-1.6,5.9-3.7,5.9c-2,0-3.7-2.6-3.7-5.9
			C46.3-148.9,47.9-151.6,49.9-151.6z M52.7-184.6c-3.7-1.4-7-1.8-10.1-1.5c-3.6,0.4-6.7,1.6-9.2,3.3c-3.3,2.2-5.6,5.3-6.7,8.3
			c-0.5,1.5-0.7,2.9-0.5,4.1c0.2,1,0.7,2,1.6,2.6c1.1,0.8,2.9,1.3,5.4,1.2c1.5,0,2.7-0.5,3.4-1.2c0.8-0.7,1.2-1.7,1.5-2.7
			c0.3-1.1,0.3-2.3,0.1-3.3c-0.3-1-0.7-1.8-1.2-2.1c-1.1-0.7-1.5-2.1-0.8-3.2c0.7-1,2.1-1.4,3.1-0.7c1.6,1,2.8,2.9,3.3,5
			c0.4,1.7,0.4,3.6-0.1,5.4c-0.4,1.8-1.3,3.6-2.7,5c-1.5,1.5-3.7,2.4-6.5,2.5c-3.6,0-6.2-0.8-8.1-2.2c-1.8-1.4-2.9-3.3-3.3-5.4
			c-0.4-2-0.1-4.2,0.7-6.4c1.3-3.9,4.3-7.8,8.4-10.6c1.5-1.1,3.3-2,5.3-2.7c-1.3-0.1-2.7-0.1-4-0.1c-12.6,0-24,5.1-32.2,13.3
			c-8.2,8.2-13.3,19.6-13.3,32.2c0,12.5,5.1,23.9,13.3,32.2c8.2,8.2,19.6,13.3,32.2,13.3c12.5,0,23.9-5.1,32.1-13.3
			c8.3-8.3,13.3-19.6,13.3-32.2c0-12.5-5.1-24-13.3-32.2C60.9-179.6,57-182.4,52.7-184.6z"/>
	</g>
	<g>
		<path  class="fill" d="M44.6,80.6l-0.5,2c-7.8-2-14.8-6.2-20.2-12.1l1.6-1.4C30.6,74.8,37.2,78.8,44.6,80.6z M25.2,30.6l1.6,1.3
			c4.9-5.9,11.3-10.2,18.6-12.4l-0.6-2C37.1,19.8,30.3,24.3,25.2,30.6z M20.4,72.7l-1.7,1.3c3.1,4.1,6.9,7.6,11.3,10.3
			c4.4,2.7,9.1,4.5,14.2,5.4l0.4-2.1C34.8,85.8,26.3,80.5,20.4,72.7z M44.4,13.5L44,11.4c-5.1,1-9.8,3-14.2,5.8
			c-4.3,2.8-8,6.3-10.9,10.5l1.7,1.2C26.3,20.9,34.8,15.4,44.4,13.5z M100,50c0,27.6-22.4,50-50,50S0,77.6,0,50C0,22.4,22.4,0,50,0
			S100,22.4,100,50z M96.3,50C96.3,24.4,75.6,3.7,50,3.7C24.4,3.7,3.7,24.4,3.7,50S24.4,96.3,50,96.3C75.6,96.3,96.3,75.6,96.3,50z
			 M88.2,37.2l-2,0.7c3.1,9.4,2.4,19.4-1.7,28.3l1.9,0.9c2.2-4.7,3.5-9.7,3.8-14.8C90.5,47.1,89.8,42,88.2,37.2z M55.3,50
			c0-2.9-2.4-5.3-5.3-5.3c-2.9,0-5.3,2.4-5.3,5.3c0,2.9,2.4,5.3,5.3,5.3C52.9,55.3,55.3,52.9,55.3,50z M78.3,73
			c0.6,2,0.7,4.2-0.7,6.8c-6.3,11.4-23.6,9.5-30.9-3.7c-2.5-4.1-3.1-9.7-3.2-13.6c-2.7-1.4-4.8-3.6-6.1-6.2
			c-6.1,3.8-13.6,11.3-19.1,11c-2.1-0.1-4.2-0.9-6.1-3.1c-8.4-10-0.5-25.4,14.4-27.5c5.2-0.9,11.3,0.8,15,2.2
			c3.2-2.4,7.3-3.3,11.3-2.5c0.7-7.1-0.8-17.7,2.8-21.9c1.4-1.6,3.2-2.8,6.1-3c13-0.7,20.6,14.9,13.3,28.1c-2.4,4.8-7.7,8.7-11,10.8
			c-0.1,3.1-1.1,6.1-3.1,8.5C66.6,63.2,76.7,67.6,78.3,73z M56.6,37.6c3.4,1.8,5.8,4.8,6.8,8.3c2.1-1.4,5.9-4.2,8.2-8.3
			c7.2-13.9-3.3-23.5-9.7-22.3c-2,0.1-2.8,0.8-3.2,1.4C56,20.5,57.4,31.4,56.6,37.6z M38.5,41.9c-2.4-0.8-6.8-2-11.4-1.5
			c-15.4,2.6-16.8,16.8-12,21.1c1.3,1.5,2.3,1.7,3.1,1.7c4.7,0,12.5-7.7,17.9-10.8C35.4,48.2,36.7,44.4,38.5,41.9z M59.6,53.3
			c1.8-5.3-1-11.1-6.3-12.9c-5.3-1.8-11.1,1-12.9,6.3c-1.8,5.3,1,11.1,6.3,12.9C52,61.4,57.8,58.6,59.6,53.3z M74.6,74.4
			c-1.7-4.4-11.7-8.9-16.5-12.9c-3,2.1-6.9,3.1-10.7,2.4c0.1,2.6,0.7,6.7,2.6,10.4c7.9,13.4,21.7,9.7,24,3.7
			C75.1,76.1,74.9,75.1,74.6,74.4z M80.1,41c1.9,7.4,1.5,15.2-1.1,22.4l2,0.7c2.7-7.6,3.1-15.7,1.2-23.6L80.1,41z"/>
	</g>
</g>
<g id="Layer_2">
	<g>
		<g>
			<path  class="fill" d="M-83.1-120.5h-80.1c-3.6,0-6.8-1.9-8.6-5c-1.8-3.1-1.8-6.8,0-9.9l40-69.3c1.8-3.1,5-5,8.6-5c3.6,0,6.8,1.9,8.6,5l40,69.3
				c1.8,3.1,1.8,6.8,0,9.9C-76.3-122.4-79.5-120.5-83.1-120.5z M-123.1-207.7c-2.8,0-5.4,1.5-6.8,4l-40,69.3c-1.4,2.5-1.4,5.4,0,7.9
				c1.4,2.5,4,4,6.8,4h80.1c2.9,0,5.4-1.5,6.8-3.9c1.4-2.5,1.4-5.4,0-7.9l-40-69.3C-117.7-206.2-120.3-207.7-123.1-207.7z"/>
		</g>
		<g>
			<path  class="fill" d="M-123.1-137.9c-1,0-1.9-0.8-1.9-1.9l-2.5-47.3c0-1,0.6-4.2,4.3-4.2c4.3,0,4.3,3.2,4.3,4.2l-2.5,47.3
				C-121.3-138.7-122.1-137.9-123.1-137.9z"/>
		</g>
		<circle cx="-123.1" cy="-132.5" r="3.4"/>
	</g>
</g>
</svg>
