<?xml version="1.0" encoding="utf-8"?>
<!-- Generator: Adobe Illustrator 22.1.0, SVG Export Plug-In . SVG Version: 6.00 Build 0)  -->
<svg version="1.1" id="Layer_1" xmlns="http://www.w3.org/2000/svg" xmlns:xlink="http://www.w3.org/1999/xlink" x="0px" y="0px"
	 viewBox="0 0 100 100" style="enable-background:new 0 0 100 100;" xml:space="preserve">
<g>
	<path d="M50,0c13.8,0,26.3,5.6,35.3,14.7c9.1,9,14.7,21.6,14.7,35.3s-5.6,26.3-14.7,35.3C76.3,94.4,63.8,100,50,100
		c-13.9,0-26.3-5.6-35.4-14.7C5.6,76.3,0,63.8,0,50s5.6-26.3,14.6-35.3C23.7,5.6,36.1,0,50,0z M62.9,73.7c1.1-0.5,2.4-0.1,3,1.1
		c0.5,1.1,0,2.4-1.1,3c-8.7,4.2-18.5,4.8-29.6,0C34,77.4,33.5,76,34,74.9c0.5-1.2,1.8-1.7,3-1.2C46.8,77.9,55.3,77.4,62.9,73.7z
		 M32.2,42.4c2.1,0,3.7,2.6,3.7,5.9c0,3.2-1.6,5.9-3.7,5.9c-2,0-3.7-2.6-3.7-5.9C28.5,45.1,30.2,42.4,32.2,42.4z M67.7,42.4
		c2.1,0,3.7,2.6,3.7,5.9c0,3.2-1.6,5.9-3.7,5.9c-2,0-3.7-2.6-3.7-5.9C64.1,45.1,65.8,42.4,67.7,42.4z M70.5,9.4
		c-3.7-1.4-7-1.8-10.1-1.5c-3.6,0.4-6.7,1.6-9.2,3.3c-3.3,2.2-5.6,5.3-6.7,8.3C44,21,43.8,22.4,44,23.6c0.2,1,0.7,2,1.6,2.6
		c1.1,0.8,2.9,1.3,5.4,1.2c1.5,0,2.7-0.5,3.4-1.2c0.8-0.7,1.2-1.7,1.5-2.7c0.3-1.1,0.3-2.3,0.1-3.3c-0.3-1-0.7-1.8-1.2-2.1
		c-1.1-0.7-1.5-2.1-0.8-3.2c0.7-1,2.1-1.4,3.1-0.7c1.6,1,2.8,2.9,3.3,5c0.4,1.7,0.4,3.6-0.1,5.4c-0.4,1.8-1.3,3.6-2.7,5
		c-1.5,1.5-3.7,2.4-6.5,2.5c-3.6,0-6.2-0.8-8.1-2.2c-1.8-1.4-2.9-3.3-3.3-5.4c-0.4-2-0.1-4.2,0.7-6.4c1.3-3.9,4.3-7.8,8.4-10.6
		c1.5-1.1,3.3-2,5.3-2.7c-1.3-0.1-2.7-0.1-4-0.1c-12.6,0-24,5.1-32.2,13.3S4.5,37.5,4.5,50s5.1,23.9,13.3,32.2
		C26,90.4,37.4,95.5,50,95.5c12.5,0,23.9-5.1,32.1-13.3c8.3-8.3,13.3-19.6,13.3-32.2s-5.1-24-13.3-32.2
		C78.7,14.4,74.9,11.6,70.5,9.4z"/>
</g>
</svg>
