<?xml version="1.0" encoding="utf-8"?>
<!-- Generator: Adobe Illustrator 22.1.0, SVG Export Plug-In . SVG Version: 6.00 Build 0)  -->
<svg version="1.1" id="Layer_1" xmlns="http://www.w3.org/2000/svg" xmlns:xlink="http://www.w3.org/1999/xlink" x="0px" y="0px"
	 viewBox="0 0 100 100" style="enable-background:new 0 0 100 100;" xml:space="preserve">
<g>
	<path d="M50,0c8,0,15.2,3.2,20.4,8.5s8.5,12.5,8.5,20.4v42.2c0,7.9-3.2,15.2-8.5,20.4S58,100,50,100s-15.2-3.2-20.4-8.5
		c-5.2-5.2-8.5-12.5-8.5-20.4V28.9c0-8,3.2-15.2,8.5-20.4S42,0,50,0z M59.9,9.4c-1.8-0.7-3.4-0.9-4.9-0.7c-1.8,0.1-3.2,0.7-4.4,1.5
		c-1.6,1.1-2.7,2.6-3.2,4c-0.2,0.7-0.3,1.4-0.2,2c0.1,0.5,0.3,0.9,0.7,1.3c0.6,0.4,1.4,0.6,2.6,0.6c0.8,0,1.3-0.2,1.7-0.6
		c0.3-0.3,0.6-0.8,0.7-1.3c0.1-0.6,0.1-1.1,0-1.6s-0.3-0.9-0.6-1c-0.5-0.3-0.7-1-0.4-1.5s1-0.7,1.5-0.4c0.8,0.5,1.3,1.3,1.6,2.4
		c0.2,0.8,0.2,1.7,0,2.5c-0.2,0.9-0.6,1.8-1.3,2.4c-0.7,0.7-1.8,1.2-3.2,1.2c-1.7,0-3-0.4-3.9-1.1c-0.9-0.6-1.4-1.6-1.6-2.6
		c-0.2-1,0-2,0.3-3.1c0.6-1.9,2.1-3.8,4-5.1C50.2,7.8,51,7.4,52,7c-0.6,0-1.3,0-1.9,0C44,7,38.6,9.5,34.6,13.4
		c-4,4-6.4,9.5-6.4,15.5s2.5,11.5,6.4,15.5c4,4,9.5,6.4,15.5,6.4s11.5-2.5,15.5-6.4S72,34.9,72,28.9c0-6.1-2.5-11.5-6.4-15.5
		C63.9,11.8,62,10.4,59.9,9.4z M50,4.8c6.6,0,12.7,2.7,17,7c4.4,4.4,7.1,10.4,7.1,17.1c0,6.6-2.7,12.7-7.1,17
		C62.7,50.3,56.7,53,50,53s-12.7-2.7-17.1-7.1s-7.1-10.4-7.1-17c0-6.7,2.7-12.7,7.1-17.1S43.3,4.8,50,4.8z M45.6,42.5
		c-0.4-0.4-0.4-1.1,0-1.5c0.5-0.4,1.2-0.4,1.5,0.1c0.1,0.1,0.3,0.3,0.5,0.4c0.7,0.6,1.6,0.9,2.5,0.9s1.7-0.3,2.3-0.9
		c0.1-0.1,0.2-0.2,0.3-0.3c0.4-0.5,1.1-0.6,1.5-0.2s0.6,1.1,0.2,1.5c-0.2,0.2-0.4,0.4-0.6,0.6c-1,0.9-2.4,1.4-3.8,1.4
		c-1.3,0-2.7-0.5-3.8-1.3C46,43,45.8,42.7,45.6,42.5z M61.8,25.5c0.4-0.5,1.1-0.5,1.6-0.1c0.4,0.4,0.5,1.1,0,1.6
		c-0.2,0.2-0.4,0.4-0.7,0.6c-1.1,0.9-2.5,1.3-3.8,1.3s-2.7-0.5-3.8-1.4c-0.2-0.2-0.4-0.4-0.6-0.6c-0.4-0.5-0.3-1.2,0.2-1.5
		c0.5-0.4,1.2-0.3,1.5,0.2c0.1,0.1,0.2,0.2,0.3,0.4l0,0c0.6,0.6,1.4,0.8,2.3,0.8c0.8,0,1.8-0.3,2.5-0.8
		C61.5,25.7,61.7,25.6,61.8,25.5z M36.6,26.9c-0.4-0.5-0.4-1.2,0.1-1.6c0.4-0.4,1.1-0.4,1.5,0.1c0.1,0.1,0.3,0.3,0.4,0.4
		c0.7,0.6,1.6,0.8,2.5,0.8c0.8,0,1.7-0.3,2.3-0.8l0,0c0.1-0.1,0.2-0.2,0.3-0.4c0.4-0.5,1.1-0.6,1.5-0.2c0.5,0.4,0.6,1.1,0.2,1.5
		c-0.2,0.2-0.4,0.4-0.6,0.6c-1,0.9-2.4,1.4-3.8,1.4c-1.3,0-2.7-0.5-3.8-1.3C37,27.4,36.8,27.2,36.6,26.9z M23.3,63
		c6.2,6.5,13.4,11.5,21.6,15.4c8.1,3.9,17.1,6.7,26.8,8.4c2.6-3.5,4.3-7.7,4.9-12.3c-10.9-1.6-21-4.3-30.2-8.3
		c-8.6-3.8-16.4-8.9-23-15.4C23.3,50.8,23.3,63,23.3,63z M70,88.8c-9.4-1.9-18.2-4.6-26.1-8.4c-7.6-3.7-14.6-8.4-20.6-14.3v5.1
		c0,7.3,3,14,7.8,18.9C36,95,42.6,97.9,50,97.9c7.3,0,14-3,18.9-7.8C69.3,89.6,69.6,89.2,70,88.8z M76.7,50.8c-3.4,3.3-7,6.3-11,8.9
		s-8.3,5-12.8,6.9c7.3,2.7,15.3,4.6,23.7,5.8c0-0.4,0-0.8,0-1.3C76.7,71.1,76.7,50.8,76.7,50.8z M50,65.4c5.2-2.1,10.1-4.6,14.6-7.6
		c4.4-2.9,8.5-6.3,12.2-10.2V28.9c0-7.4-3-14-7.8-18.9c-5-4.8-11.7-7.8-19-7.8c-7.4,0-14,3-18.9,7.8c-4.8,4.9-7.8,11.5-7.8,18.9
		v18.7c6.8,7.1,14.8,12.5,23.9,16.6C48.1,64.6,49,65,50,65.4z"/>
</g>
</svg>
