<?xml version="1.0" encoding="utf-8"?>
<!-- Generator: Adobe Illustrator 22.1.0, SVG Export Plug-In . SVG Version: 6.00 Build 0)  -->
<svg version="1.1" id="Layer_1" xmlns="http://www.w3.org/2000/svg" xmlns:xlink="http://www.w3.org/1999/xlink" x="0px" y="0px"
	 viewBox="0 0 100 100" style="enable-background:new 0 0 100 100;" xml:space="preserve">
<g>
	<path d="M50,4.8c6.6,0,12.7,2.7,17,7.1c4.4,4.3,7.1,10.4,7.1,17s-2.7,12.7-7.1,17C62.7,50.3,56.6,53,50,53
		c-6.7,0-12.7-2.7-17.1-7.1c-4.3-4.3-7-10.4-7-17s2.7-12.7,7-17C37.3,7.5,43.3,4.8,50,4.8z M43.7,43.8c-0.5,0.2-1.2,0-1.4-0.5
		s0-1.2,0.5-1.4c4.2-2,8.9-2.3,14.3,0c0.6,0.2,0.8,0.9,0.6,1.4c-0.2,0.6-0.9,0.8-1.4,0.6C51.5,41.8,47.4,42,43.7,43.8z M41.4,25.3
		c1,0,1.8,1.3,1.8,2.8s-0.8,2.8-1.8,2.8s-1.8-1.3-1.8-2.8S40.5,25.3,41.4,25.3z M58.6,25.3c1,0,1.8,1.3,1.8,2.8s-0.8,2.8-1.8,2.8
		s-1.8-1.3-1.8-2.8S57.6,25.3,58.6,25.3z M23.3,62.9c6.2,6.5,13.4,11.6,21.5,15.4c8.1,3.9,17.1,6.6,26.7,8.4
		c2.6-3.5,4.3-7.7,4.9-12.3c-10.9-1.6-21.1-4.3-30.2-8.3c-8.7-3.9-16.4-8.9-23-15.5C23.3,50.7,23.3,62.9,23.3,62.9z M70,88.7
		c-9.4-1.8-18.2-4.6-26.1-8.4c-7.7-3.7-14.6-8.4-20.6-14.3v5.1c0,7.3,3,14,7.8,18.9s11.5,7.8,18.9,7.8s14-3,18.9-7.8
		C69.3,89.6,69.6,89.2,70,88.7z M76.7,50.7c-3.4,3.4-7.1,6.3-11,8.9c-4,2.7-8.3,4.9-12.8,6.9c7.3,2.7,15.3,4.6,23.7,5.9
		c0-0.4,0-0.8,0-1.3C76.7,71.1,76.7,50.7,76.7,50.7z M50,65.4c5.2-2.1,10-4.6,14.5-7.6c4.4-2.9,8.5-6.3,12.2-10.1V28.9
		c0-7.3-3-14-7.8-18.9S57.3,2.2,50,2.2s-14,3-18.9,7.8s-7.8,11.5-7.8,18.9v18.7c6.8,7.1,14.8,12.5,23.9,16.5
		C48.1,64.6,49,65,50,65.4z M50,0c8,0,15.2,3.3,20.4,8.5c5.3,5.2,8.5,12.5,8.5,20.4v42.2c0,8-3.3,15.2-8.5,20.4
		C65.2,96.7,58,100,50,100s-15.2-3.3-20.4-8.5s-8.5-12.4-8.5-20.4V28.9c0-8,3.3-15.2,8.5-20.4S42,0,50,0z M59.9,9.3
		c-1.8-0.7-3.4-0.8-4.9-0.7c-1.7,0.2-3.3,0.8-4.4,1.6c-1.6,1.1-2.7,2.5-3.2,4c-0.2,0.7-0.4,1.4-0.2,2c0.1,0.5,0.4,1,0.8,1.3
		c0.5,0.4,1.4,0.6,2.6,0.6c0.7,0,1.3-0.2,1.7-0.6s0.6-0.8,0.7-1.3c0.1-0.5,0.1-1.1,0-1.6s-0.3-0.9-0.6-1c-0.5-0.3-0.7-1-0.4-1.5
		s1-0.7,1.5-0.4c0.8,0.5,1.3,1.4,1.6,2.4c0.2,0.8,0.2,1.7,0,2.6c-0.2,0.9-0.6,1.7-1.3,2.4c-0.7,0.7-1.8,1.2-3.1,1.2
		c-1.7,0-3-0.4-3.9-1.1s-1.4-1.6-1.6-2.6c-0.2-1-0.1-2,0.3-3.1c0.6-1.9,2.1-3.8,4.1-5.1c0.7-0.5,1.6-1,2.5-1.3C51.3,7,50.6,7,50,7
		c-6.1,0-11.6,2.4-15.5,6.4s-6.4,9.5-6.4,15.5s2.5,11.5,6.4,15.5c4,4,9.4,6.4,15.5,6.4c6,0,11.5-2.4,15.5-6.4s6.4-9.5,6.4-15.5
		s-2.4-11.6-6.4-15.5C63.9,11.8,62,10.4,59.9,9.3z"/>
</g>
</svg>
