<svg xmlns="http://www.w3.org/2000/svg" xmlns:xlink="http://www.w3.org/1999/xlink" version="1.1" x="0px" y="0px" viewBox="0 0 100 125" enable-background="new 0 0 100 100" xml:space="preserve"><g display="none"><rect x="-386.282" y="-541.809" display="inline" fill="#000000" width="1230" height="1241.809"/></g><g><path fill="none" d="M82.536,10.964c-1.798,0-3.487,0.7-4.758,1.971l-9.906,9.905l9.517,9.517l9.906-9.906   c2.624-2.624,2.624-6.893,0-9.516C86.023,11.664,84.333,10.964,82.536,10.964z"/><path fill="none" d="M59.148,27.404c-11.035,3.644-21.211,9.914-29.428,18.131L15.808,59.446c-6.761,6.761-6.761,17.761,0,24.521   c6.759,6.76,17.76,6.76,24.521,0l21.025-21.026c3.07-3.069,5.457-6.665,7.095-10.686l5.997-14.722L63.034,26.121L59.148,27.404z    M49.859,67.552l-8.286,8.286c-2.431,2.431-5.624,3.646-8.818,3.646s-6.387-1.216-8.818-3.646   c-2.348-2.348-3.641-5.479-3.641-8.818s1.293-6.47,3.641-8.818l8.286-8.286c2.348-2.348,5.479-3.641,8.818-3.641   s6.47,1.293,8.818,3.641c2.348,2.348,3.641,5.479,3.641,8.818C53.499,62.073,52.206,65.205,49.859,67.552z M59.724,53.631   l-13.58-13.579l4.059-4.059l13.58,13.579L59.724,53.631z"/><path fill="none" d="M36.283,53.977l-8.286,8.286c-2.624,2.624-2.624,6.892,0,9.516c2.623,2.623,6.894,2.623,9.517,0l8.286-8.286   c2.624-2.624,2.624-6.893,0-9.516C43.176,51.353,38.906,51.353,36.283,53.977z"/><path d="M82.536,5.224c-3.331,0-6.462,1.297-8.818,3.652L62.265,20.329l-4.918,1.624c-11.882,3.924-22.839,10.675-31.687,19.522   L11.749,55.387c-8.999,8.999-8.999,23.641,0,32.64c4.5,4.499,10.409,6.749,16.32,6.749c5.91,0,11.821-2.25,16.32-6.749   l21.025-21.026c3.614-3.613,6.424-7.845,8.352-12.579l7.097-17.421l10.49-10.49c4.862-4.862,4.862-12.773,0-17.635   C88.998,6.521,85.867,5.224,82.536,5.224z M68.45,52.257c-1.638,4.021-4.025,7.617-7.095,10.686L40.33,83.968   c-6.761,6.76-17.762,6.76-24.521,0c-6.761-6.761-6.761-17.761,0-24.521L29.72,45.535c8.217-8.217,18.393-14.486,29.428-18.131   l3.886-1.283l11.414,11.414L68.45,52.257z M87.294,22.452l-9.906,9.906l-9.517-9.517l9.906-9.905   c1.271-1.271,2.96-1.971,4.758-1.971c1.797,0,3.487,0.7,4.758,1.971C89.918,15.559,89.918,19.828,87.294,22.452z"/><path d="M41.041,46.277c-3.338,0-6.47,1.293-8.818,3.641l-8.286,8.286c-2.348,2.348-3.641,5.479-3.641,8.818   s1.293,6.47,3.641,8.818c2.431,2.431,5.625,3.646,8.818,3.646s6.386-1.216,8.818-3.646l8.286-8.286   c2.348-2.348,3.641-5.479,3.641-8.818c0-3.338-1.294-6.47-3.641-8.818C47.511,47.57,44.379,46.277,41.041,46.277z M45.799,63.493   l-8.286,8.286c-2.623,2.623-6.893,2.623-9.517,0c-2.624-2.624-2.624-6.893,0-9.516l8.286-8.286c2.623-2.623,6.893-2.623,9.517,0   C48.423,56.601,48.423,60.869,45.799,63.493z"/><rect x="45.362" y="41.942" transform="matrix(-0.7071 -0.7071 0.7071 -0.7071 62.1441 115.364)" width="19.204" height="5.741"/></g><text x="0" y="115" fill="#000000" font-size="5px" font-weight="bold" font-family="'Helvetica Neue', Helvetica, Arial-Unicode, Arial, Sans-serif">Created by Oksana Latysheva</text><text x="0" y="120" fill="#000000" font-size="5px" font-weight="bold" font-family="'Helvetica Neue', Helvetica, Arial-Unicode, Arial, Sans-serif">from the Noun Project</text></svg>