<svg xmlns="http://www.w3.org/2000/svg" xmlns:xlink="http://www.w3.org/1999/xlink" xml:space="preserve" version="1.1" style="shape-rendering:geometricPrecision;text-rendering:geometricPrecision;image-rendering:optimizeQuality;" viewBox="0 0 1.247 2.69625" x="0px" y="0px" fill-rule="evenodd" clip-rule="evenodd"><defs><style type="text/css">
   
    .fil0 {fill:black;fill-rule:nonzero}
   
  </style></defs><g><path class="fil0" d="M0.624 0c0.171,0 0.327,0.07 0.44,0.183 0.113,0.113 0.183,0.269 0.183,0.441l0 0.91c0,0.171 -0.07,0.327 -0.183,0.44 -0.113,0.113 -0.269,0.183 -0.44,0.183 -0.172,0 -0.328,-0.07 -0.441,-0.183 -0.113,-0.113 -0.183,-0.269 -0.183,-0.44l0 -0.91c0,-0.172 0.07,-0.328 0.183,-0.441 0.113,-0.113 0.269,-0.183 0.441,-0.183zm0.213 0.202c-0.038,-0.015 -0.073,-0.019 -0.105,-0.016 -0.038,0.003 -0.07,0.016 -0.095,0.033 -0.034,0.023 -0.059,0.056 -0.07,0.087 -0.005,0.015 -0.007,0.03 -0.005,0.043 0.002,0.01 0.007,0.02 0.016,0.027 0.012,0.008 0.03,0.014 0.056,0.013 0.017,0 0.028,-0.005 0.037,-0.013 0.007,-0.007 0.012,-0.017 0.015,-0.028 0.002,-0.012 0.002,-0.024 0,-0.035 -0.003,-0.01 -0.007,-0.019 -0.012,-0.022 -0.011,-0.007 -0.015,-0.021 -0.008,-0.032 0.006,-0.011 0.021,-0.015 0.032,-0.008 0.017,0.01 0.029,0.029 0.034,0.052 0.004,0.017 0.004,0.037 -0.001,0.055 -0.004,0.019 -0.013,0.038 -0.028,0.052 -0.016,0.015 -0.039,0.026 -0.068,0.026 -0.037,0.001 -0.065,-0.008 -0.085,-0.023 -0.019,-0.014 -0.03,-0.034 -0.034,-0.056 -0.004,-0.021 -0.001,-0.044 0.007,-0.066 0.014,-0.041 0.045,-0.082 0.087,-0.111 0.017,-0.011 0.035,-0.02 0.056,-0.028 -0.014,-0.001 -0.028,-0.001 -0.042,-0.001 -0.131,0 -0.249,0.053 -0.335,0.138 -0.086,0.086 -0.139,0.204 -0.139,0.335 0,0.13 0.053,0.249 0.139,0.334 0.086,0.086 0.204,0.139 0.335,0.139 0.13,0 0.248,-0.053 0.334,-0.139 0.086,-0.085 0.139,-0.204 0.139,-0.334 0,-0.131 -0.053,-0.249 -0.139,-0.335 -0.035,-0.035 -0.076,-0.065 -0.121,-0.087zm-0.213 -0.098c0.143,0 0.273,0.058 0.367,0.152 0.094,0.094 0.153,0.224 0.153,0.368 0,0.143 -0.059,0.273 -0.153,0.367 -0.094,0.095 -0.224,0.153 -0.367,0.153 -0.144,0 -0.274,-0.058 -0.368,-0.153 -0.094,-0.094 -0.153,-0.224 -0.153,-0.367 0,-0.144 0.059,-0.274 0.153,-0.368 0.094,-0.094 0.224,-0.152 0.368,-0.152zm-0.095 0.813c-0.009,-0.009 -0.008,-0.024 0.001,-0.033 0.01,-0.009 0.025,-0.008 0.033,0.002 0.003,0.003 0.006,0.006 0.01,0.008 0.015,0.013 0.034,0.019 0.053,0.019 0.019,0 0.037,-0.007 0.05,-0.019 0.002,-0.002 0.004,-0.004 0.007,-0.007 0.008,-0.01 0.023,-0.012 0.033,-0.004 0.01,0.008 0.012,0.023 0.004,0.033 -0.004,0.005 -0.008,0.009 -0.013,0.013 -0.022,0.02 -0.051,0.03 -0.081,0.031 -0.029,0 -0.059,-0.01 -0.083,-0.029 -0.005,-0.004 -0.01,-0.009 -0.014,-0.014zm0.349 -0.368c0.009,-0.01 0.024,-0.01 0.034,-0.002 0.009,0.009 0.01,0.024 0.001,0.034 -0.004,0.005 -0.009,0.009 -0.015,0.013 -0.024,0.019 -0.053,0.029 -0.083,0.029 -0.029,0 -0.059,-0.011 -0.081,-0.031 -0.004,-0.004 -0.008,-0.008 -0.012,-0.013 -0.008,-0.01 -0.006,-0.025 0.004,-0.033 0.01,-0.008 0.025,-0.006 0.033,0.004 0.002,0.003 0.004,0.005 0.007,0.008l0 0c0.013,0.012 0.031,0.018 0.05,0.018 0.018,0 0.038,-0.006 0.053,-0.018 0.003,-0.003 0.006,-0.006 0.009,-0.009zm-0.544 0.032c-0.009,-0.01 -0.008,-0.025 0.002,-0.034 0.009,-0.008 0.024,-0.008 0.033,0.002 0.003,0.003 0.006,0.006 0.009,0.009 0.015,0.012 0.035,0.018 0.054,0.018 0.018,0 0.036,-0.006 0.049,-0.018l0 0c0.003,-0.003 0.005,-0.005 0.007,-0.008 0.008,-0.01 0.023,-0.012 0.033,-0.004 0.01,0.008 0.012,0.023 0.004,0.033 -0.004,0.005 -0.008,0.009 -0.012,0.013 -0.022,0.02 -0.052,0.031 -0.081,0.031 -0.029,0 -0.059,-0.01 -0.083,-0.029 -0.006,-0.004 -0.01,-0.008 -0.015,-0.013zm-0.287 0.777c0.134,0.14 0.29,0.249 0.465,0.333 0.174,0.085 0.368,0.144 0.577,0.182 0.056,-0.076 0.093,-0.167 0.106,-0.265 -0.235,-0.035 -0.454,-0.093 -0.651,-0.18 -0.186,-0.083 -0.353,-0.193 -0.497,-0.333l0 0.263zm1.008 0.557c-0.203,-0.04 -0.392,-0.099 -0.564,-0.181 -0.165,-0.08 -0.314,-0.182 -0.444,-0.309l0 0.109c0,0.158 0.065,0.303 0.169,0.407 0.105,0.105 0.249,0.169 0.408,0.169 0.158,0 0.302,-0.064 0.407,-0.169 0.008,-0.008 0.016,-0.017 0.024,-0.026zm0.145 -0.82c-0.073,0.071 -0.152,0.135 -0.237,0.191 -0.086,0.057 -0.179,0.107 -0.276,0.149 0.158,0.058 0.33,0.099 0.512,0.126 0.001,-0.009 0.001,-0.018 0.001,-0.027l0 -0.439zm-0.577 0.316c0.112,-0.046 0.217,-0.1 0.314,-0.164 0.095,-0.063 0.183,-0.136 0.263,-0.219l0 -0.404c0,-0.159 -0.065,-0.303 -0.169,-0.408 -0.105,-0.104 -0.249,-0.169 -0.407,-0.169 -0.159,0 -0.303,0.065 -0.408,0.169 -0.104,0.105 -0.169,0.249 -0.169,0.408l0 0.404c0.147,0.153 0.32,0.27 0.516,0.357 0.02,0.009 0.04,0.017 0.06,0.026z"/></g><text x="0" y="17.157" fill="#000000" font-size="5px" font-weight="bold" font-family="'Helvetica Neue', Helvetica, Arial-Unicode, Arial, Sans-serif">Created by Deemak Daksina</text><text x="0" y="22.157" fill="#000000" font-size="5px" font-weight="bold" font-family="'Helvetica Neue', Helvetica, Arial-Unicode, Arial, Sans-serif">from the Noun Project</text></svg>