<svg xmlns="http://www.w3.org/2000/svg" xmlns:xlink="http://www.w3.org/1999/xlink" xml:space="preserve" version="1.1" style="shape-rendering:geometricPrecision;text-rendering:geometricPrecision;image-rendering:optimizeQuality;" viewBox="0 0 1.353 2.925" x="0px" y="0px" fill-rule="evenodd" clip-rule="evenodd"><defs><style type="text/css">
   
    .fil0 {fill:black;fill-rule:nonzero}
   
  </style></defs><g><path class="fil0" d="M0.676 0c0.186,0 0.355,0.076 0.478,0.199 0.123,0.122 0.199,0.291 0.199,0.477l0 0.988c0,0.186 -0.076,0.355 -0.199,0.477 -0.123,0.123 -0.292,0.199 -0.478,0.199 -0.186,0 -0.355,-0.076 -0.477,-0.199 -0.123,-0.122 -0.199,-0.291 -0.199,-0.477l0 -0.988c0,-0.186 0.076,-0.355 0.199,-0.477 0.122,-0.123 0.291,-0.199 0.477,-0.199zm0.232 0.219c-0.041,-0.016 -0.08,-0.021 -0.114,-0.018 -0.041,0.004 -0.076,0.018 -0.103,0.037 -0.037,0.025 -0.064,0.06 -0.076,0.094 -0.006,0.016 -0.008,0.032 -0.005,0.046 0.002,0.012 0.008,0.022 0.017,0.029 0.013,0.01 0.033,0.015 0.061,0.015 0.018,0 0.03,-0.006 0.039,-0.014 0.009,-0.008 0.014,-0.019 0.017,-0.031 0.003,-0.012 0.003,-0.026 0,-0.037 -0.003,-0.012 -0.007,-0.021 -0.013,-0.024 -0.012,-0.008 -0.016,-0.023 -0.009,-0.035 0.007,-0.012 0.023,-0.016 0.035,-0.009 0.018,0.011 0.031,0.032 0.037,0.057 0.004,0.018 0.004,0.039 -0.001,0.059 -0.004,0.021 -0.014,0.041 -0.031,0.057 -0.017,0.016 -0.041,0.027 -0.073,0.028 -0.04,0 -0.071,-0.009 -0.092,-0.025 -0.021,-0.015 -0.033,-0.037 -0.037,-0.061 -0.004,-0.022 -0.002,-0.047 0.007,-0.072 0.015,-0.043 0.049,-0.088 0.095,-0.119 0.018,-0.012 0.038,-0.023 0.06,-0.031 -0.015,-0.001 -0.03,-0.002 -0.046,-0.002 -0.141,0 -0.27,0.058 -0.363,0.151 -0.092,0.092 -0.15,0.221 -0.15,0.362 0,0.142 0.058,0.27 0.15,0.363 0.013,0.013 0.026,0.024 0.039,0.035l0 -0.145c0,-0.014 0.012,-0.026 0.026,-0.026 0.014,0 0.025,0.012 0.025,0.026l0 0.182c0.079,0.05 0.173,0.079 0.273,0.079 0.101,0 0.194,-0.029 0.273,-0.079l0 -0.182c0,-0.014 0.012,-0.026 0.026,-0.026 0.014,0 0.025,0.012 0.025,0.026l0 0.145c0.014,-0.011 0.027,-0.022 0.039,-0.035 0.093,-0.093 0.15,-0.221 0.15,-0.363 0,-0.141 -0.057,-0.27 -0.15,-0.362 -0.038,-0.039 -0.082,-0.071 -0.131,-0.095zm-0.232 -0.107c0.156,0 0.297,0.064 0.399,0.166 0.102,0.102 0.165,0.243 0.165,0.398 0,0.156 -0.063,0.297 -0.165,0.399 -0.102,0.102 -0.243,0.166 -0.399,0.166 -0.155,0 -0.296,-0.064 -0.399,-0.166 -0.102,-0.102 -0.165,-0.243 -0.165,-0.399 0,-0.155 0.063,-0.296 0.165,-0.398 0.103,-0.103 0.244,-0.166 0.399,-0.166zm0 0.758c-0.031,0 -0.063,0.011 -0.085,0.032 -0.02,0.017 -0.032,0.042 -0.032,0.072 0,0.002 0,0.004 0,0.005 0.001,0.005 0.004,0.009 0.008,0.011 0.005,0.004 0.011,0.005 0.019,0.005 0.004,0 0.008,0 0.012,-0.001 0.008,-0.002 0.017,-0.007 0.026,-0.013 0.016,-0.01 0.032,-0.019 0.052,-0.019 0.021,0 0.037,0.009 0.052,0.019 0.009,0.006 0.019,0.011 0.027,0.013 0.003,0.001 0.007,0.001 0.011,0.001 0.008,0 0.015,-0.001 0.02,-0.005 0.004,-0.002 0.007,-0.006 0.008,-0.011 0,-0.001 0,-0.003 0,-0.005 0,-0.03 -0.013,-0.055 -0.032,-0.072 -0.023,-0.021 -0.054,-0.032 -0.086,-0.032zm-0.119 -0.006c0.032,-0.029 0.076,-0.045 0.119,-0.045 0.044,0 0.088,0.016 0.12,0.045 0.029,0.027 0.049,0.064 0.049,0.11 0,0.005 -0.001,0.01 -0.002,0.015 -0.004,0.019 -0.014,0.034 -0.029,0.043 -0.013,0.01 -0.03,0.014 -0.048,0.014 -0.007,0 -0.014,0 -0.022,-0.002 -0.016,-0.004 -0.03,-0.012 -0.042,-0.019 -0.01,-0.006 -0.019,-0.012 -0.026,-0.012 -0.006,0 -0.016,0.006 -0.025,0.012 -0.013,0.007 -0.026,0.015 -0.043,0.019 -0.007,0.002 -0.015,0.002 -0.022,0.002 -0.018,0 -0.034,-0.004 -0.048,-0.014 -0.014,-0.009 -0.025,-0.024 -0.029,-0.043 -0.001,-0.005 -0.001,-0.01 -0.001,-0.015 0,-0.046 0.019,-0.083 0.049,-0.11zm0.443 -0.059c0,0.015 -0.011,0.026 -0.025,0.026 -0.014,0 -0.026,-0.011 -0.026,-0.026l0 -0.056c0,-0.014 0.012,-0.025 0.026,-0.025 0.014,0 0.025,0.011 0.025,0.025l0 0.056zm-0.154 -0.217c-0.014,0 -0.026,-0.011 -0.026,-0.026 0,-0.014 0.012,-0.025 0.026,-0.025 0.034,0 0.063,0.005 0.088,0.018 0.026,0.012 0.046,0.031 0.062,0.058 0.008,0.011 0.004,0.027 -0.008,0.034 -0.012,0.008 -0.028,0.004 -0.035,-0.008 -0.011,-0.018 -0.025,-0.031 -0.041,-0.039 -0.018,-0.008 -0.039,-0.012 -0.066,-0.012zm-0.443 0.217c0,0.015 -0.011,0.026 -0.025,0.026 -0.014,0 -0.026,-0.011 -0.026,-0.026l0 -0.056c0,-0.014 0.012,-0.025 0.026,-0.025 0.014,0 0.025,0.011 0.025,0.025l0 0.056zm0.104 -0.268c0.014,0 0.025,0.011 0.025,0.025 0,0.015 -0.011,0.026 -0.025,0.026 -0.027,0 -0.049,0.004 -0.066,0.012 -0.017,0.008 -0.03,0.021 -0.041,0.039 -0.008,0.012 -0.023,0.016 -0.035,0.008 -0.012,-0.007 -0.016,-0.023 -0.009,-0.034 0.017,-0.027 0.037,-0.046 0.063,-0.058 0.024,-0.013 0.053,-0.018 0.088,-0.018zm-0.456 0.936c0.145,0.151 0.314,0.27 0.504,0.362 0.189,0.091 0.399,0.155 0.626,0.197 0.061,-0.083 0.102,-0.181 0.115,-0.288 -0.255,-0.037 -0.492,-0.1 -0.706,-0.195 -0.202,-0.09 -0.383,-0.209 -0.539,-0.362l0 0.286zm1.094 0.604c-0.221,-0.043 -0.426,-0.107 -0.612,-0.197 -0.179,-0.086 -0.341,-0.196 -0.482,-0.334l0 0.118c0,0.172 0.07,0.328 0.184,0.441 0.113,0.114 0.269,0.184 0.441,0.184 0.172,0 0.329,-0.07 0.442,-0.184 0.009,-0.009 0.018,-0.018 0.027,-0.028zm0.157 -0.89c-0.08,0.078 -0.166,0.147 -0.258,0.208 -0.093,0.062 -0.193,0.115 -0.299,0.161 0.172,0.063 0.358,0.108 0.556,0.138 0,-0.01 0.001,-0.02 0.001,-0.03l0 -0.477zm-0.626 0.343c0.121,-0.049 0.235,-0.108 0.34,-0.178 0.104,-0.068 0.199,-0.147 0.286,-0.237l0 -0.439c0,-0.172 -0.071,-0.328 -0.184,-0.441 -0.113,-0.114 -0.27,-0.184 -0.442,-0.184 -0.172,0 -0.328,0.07 -0.441,0.184 -0.114,0.113 -0.184,0.269 -0.184,0.441l0 0.439c0.159,0.166 0.347,0.293 0.56,0.387 0.021,0.01 0.043,0.019 0.065,0.028z"/></g><text x="0" y="17.34" fill="#000000" font-size="5px" font-weight="bold" font-family="'Helvetica Neue', Helvetica, Arial-Unicode, Arial, Sans-serif">Created by Deemak Daksina</text><text x="0" y="22.34" fill="#000000" font-size="5px" font-weight="bold" font-family="'Helvetica Neue', Helvetica, Arial-Unicode, Arial, Sans-serif">from the Noun Project</text></svg>