<svg xmlns="http://www.w3.org/2000/svg" xmlns:xlink="http://www.w3.org/1999/xlink" version="1.1" x="0px" y="0px" viewBox="0 0 100 125" enable-background="new 0 0 100 100" xml:space="preserve"><g display="none"><rect x="-866.282" y="-61.809" display="inline" fill="#000000" width="1230" height="692.218"/></g><g><g><path fill="#000000" d="M12.476,71.404c2.563,0.553,4.984,0.047,6.957-1.134C24.411,82.254,36.235,90.706,50,90.706    c13.765,0,25.589-8.451,30.566-20.436c1.973,1.18,4.393,1.687,6.955,1.134c3.715-0.801,6.657-3.842,7.323-7.583    c1.074-6.031-3.558-11.295-9.396-11.295c-0.94,0-1.846,0.142-2.704,0.396c-2.205-15.43-15.092-27.461-30.909-28.33l0-6.078    c0-4.738-3.567-8.881-8.294-9.198c-5.185-0.348-9.515,3.772-9.515,8.884v2.674c0,1.642-1.331,2.974-2.974,2.974l-1.308,0    c-1.438,0-2.76-0.969-3.034-2.381c-0.369-1.898,1.082-3.567,2.917-3.567h0.166v-4.278c0-0.217-0.176-0.393-0.393-0.393h0    c-2.724,0-5.318,1.452-6.515,3.899c-2.799,5.72,1.322,11.39,6.742,11.39h1.425c4.222,0,7.645-3.423,7.645-7.645v-2.485    c0-2.21,1.612-4.188,3.812-4.402c2.524-0.245,4.656,1.74,4.656,4.213v6.469c-15.357,1.311-27.751,13.15-29.909,28.254    c-0.859-0.254-1.765-0.396-2.705-0.396c-5.837,0-10.467,5.263-9.395,11.293C5.82,67.56,8.762,70.602,12.476,71.404z     M83.079,57.836c0.705-0.396,1.506-0.641,2.37-0.641c2.691,0,4.881,2.19,4.881,4.881c0,2.691-2.19,4.881-4.881,4.881    c-1.297,0-2.471-0.517-3.346-1.346C82.724,63.118,83.062,60.515,83.079,57.836z M47.165,29.35l0.568,0.181l4.67-0.257    c14.815,0.95,26.01,13.298,26.01,28.348c0,15.667-12.746,28.413-28.414,28.413S21.586,73.289,21.586,57.622    C21.586,42.911,32.823,30.778,47.165,29.35z M14.55,57.196c0.865,0,1.666,0.245,2.371,0.641c0.017,2.678,0.355,5.281,0.976,7.774    c-0.875,0.829-2.049,1.346-3.347,1.346c-2.691,0-4.88-2.19-4.88-4.881C9.67,59.385,11.859,57.196,14.55,57.196z"/><path fill="#000000" d="M60.889,65.247c2.337,0,4.239-1.901,4.239-4.237c0-2.337-1.902-4.238-4.239-4.238    c-2.336,0-4.238,1.901-4.238,4.238C56.652,63.346,58.553,65.247,60.889,65.247z"/><path fill="#000000" d="M39.11,65.247c2.337,0,4.239-1.901,4.239-4.237c0-2.337-1.902-4.238-4.239-4.238    c-2.336,0-4.238,1.901-4.238,4.238C34.872,63.346,36.773,65.247,39.11,65.247z"/><path fill="#000000" d="M50,75.912c4.67,0,8.47-3.8,8.47-8.471h-3.835c0,2.556-2.079,4.635-4.635,4.635s-4.635-2.079-4.635-4.635    H41.53C41.53,72.112,45.33,75.912,50,75.912z"/></g></g><text x="0" y="115" fill="#000000" font-size="5px" font-weight="bold" font-family="'Helvetica Neue', Helvetica, Arial-Unicode, Arial, Sans-serif">Created by Oksana Latysheva</text><text x="0" y="120" fill="#000000" font-size="5px" font-weight="bold" font-family="'Helvetica Neue', Helvetica, Arial-Unicode, Arial, Sans-serif">from the Noun Project</text></svg>