<svg xmlns="http://www.w3.org/2000/svg" viewBox="0 0 24 26.25" fill="none" x="0px" y="0px"><path d="M10.5581 6.9689C10.5581 6.41666 11.0058 5.9689 11.5581 5.9689C12.1104 5.9689 12.5581 6.41666 12.5581 6.9689V12.9689C12.5581 13.5211 12.1104 13.9689 11.5581 13.9689C11.0058 13.9689 10.5581 13.5211 10.5581 12.9689L10.5581 6.9689Z" transform="translate(0.441925 0.0311279)" fill="black"/><path d="M11.5581 14.9689C11.0058 14.9689 10.5581 15.4167 10.5581 15.9689C10.5581 16.5211 11.0058 16.9689 11.5581 16.9689C12.1104 16.9689 12.5581 16.5211 12.5581 15.9689C12.5581 15.4167 12.1104 14.9689 11.5581 14.9689Z" transform="translate(0.441925 0.0311279)" fill="black"/><path fill-rule="evenodd" clip-rule="evenodd" d="M8.95334 1.51163C10.105 -0.503876 13.0111 -0.503876 14.1628 1.51163L22.7164 16.4805C23.8593 18.4805 22.4152 20.9689 20.1117 20.9689H3.00443C0.700964 20.9689 -0.743135 18.4805 0.399702 16.4805L8.95334 1.51163ZM12.4263 2.50394C12.0424 1.83206 11.0737 1.83206 10.6898 2.50394L2.13619 17.4728C1.75524 18.1394 2.23661 18.9689 3.00443 18.9689H20.1117C20.8795 18.9689 21.3609 18.1394 20.98 17.4728L12.4263 2.50394Z" transform="translate(0.441925 0.0311279)" fill="black"/><text x="0" y="36" fill="#000000" font-size="5px" font-weight="bold" font-family="'Helvetica Neue', Helvetica, Arial-Unicode, Arial, Sans-serif">Created by Marko FuÄek</text><text x="0" y="41" fill="#000000" font-size="5px" font-weight="bold" font-family="'Helvetica Neue', Helvetica, Arial-Unicode, Arial, Sans-serif">from the Noun Project</text></svg>