<svg xmlns="http://www.w3.org/2000/svg" xmlns:xlink="http://www.w3.org/1999/xlink" xml:space="preserve" version="1.1" style="shape-rendering:geometricPrecision;text-rendering:geometricPrecision;image-rendering:optimizeQuality;" viewBox="0 0 1.636 3.5375" x="0px" y="0px" fill-rule="evenodd" clip-rule="evenodd"><defs><style type="text/css">
   
    .fil0 {fill:black;fill-rule:nonzero}
   
  </style></defs><g><path class="fil0" d="M0.818 0.136c0.188,0 0.359,0.076 0.482,0.2 0.124,0.123 0.2,0.294 0.2,0.482 0,0.188 -0.076,0.359 -0.2,0.482 -0.123,0.124 -0.294,0.2 -0.482,0.2 -0.189,0 -0.359,-0.076 -0.483,-0.2 -0.123,-0.123 -0.199,-0.294 -0.199,-0.482 0,-0.188 0.076,-0.359 0.199,-0.482 0.124,-0.124 0.294,-0.2 0.483,-0.2zm-0.177 1.104c-0.015,0.007 -0.033,0.001 -0.041,-0.015 -0.007,-0.015 0,-0.033 0.015,-0.041 0.119,-0.057 0.252,-0.065 0.404,0 0.016,0.006 0.023,0.025 0.017,0.04 -0.007,0.016 -0.025,0.023 -0.041,0.016 -0.134,-0.057 -0.25,-0.05 -0.354,0zm-0.066 -0.525c0.028,0 0.05,0.036 0.05,0.08 0,0.044 -0.022,0.08 -0.05,0.08 -0.027,0 -0.05,-0.036 -0.05,-0.08 0,-0.044 0.023,-0.08 0.05,-0.08zm0.485 0c0.028,0 0.05,0.036 0.05,0.08 0,0.044 -0.022,0.08 -0.05,0.08 -0.027,0 -0.05,-0.036 -0.05,-0.08 0,-0.044 0.023,-0.08 0.05,-0.08zm-0.998 1.066c0.175,0.183 0.38,0.327 0.609,0.437 0.229,0.111 0.483,0.188 0.757,0.239 0.073,-0.1 0.123,-0.219 0.14,-0.348 -0.309,-0.045 -0.596,-0.122 -0.854,-0.236 -0.245,-0.109 -0.464,-0.253 -0.652,-0.438l0 0.346zm1.322 0.73c-0.267,-0.052 -0.515,-0.129 -0.74,-0.237 -0.217,-0.105 -0.412,-0.238 -0.582,-0.405l0 0.143c0,0.208 0.085,0.397 0.222,0.534 0.137,0.137 0.326,0.222 0.534,0.222 0.208,0 0.397,-0.085 0.534,-0.222 0.011,-0.011 0.022,-0.023 0.032,-0.035zm0.19 -1.076c-0.096,0.095 -0.2,0.178 -0.311,0.252 -0.113,0.075 -0.234,0.139 -0.362,0.195 0.208,0.076 0.433,0.13 0.672,0.166 0.001,-0.012 0.001,-0.024 0.001,-0.036l0 -0.577zm-0.756 0.415c0.146,-0.059 0.283,-0.13 0.411,-0.215 0.125,-0.082 0.24,-0.178 0.345,-0.287l0 -0.53c0,-0.208 -0.085,-0.397 -0.222,-0.534 -0.137,-0.137 -0.326,-0.222 -0.534,-0.222 -0.208,0 -0.397,0.085 -0.534,0.222 -0.137,0.137 -0.222,0.326 -0.222,0.534l0 0.53c0.192,0.201 0.42,0.354 0.677,0.468 0.026,0.012 0.052,0.023 0.079,0.034zm0 -1.85c0.225,0 0.429,0.092 0.577,0.24 0.149,0.148 0.241,0.353 0.241,0.578l0 1.194c0,0.225 -0.092,0.429 -0.241,0.577 -0.148,0.149 -0.352,0.241 -0.577,0.241 -0.225,0 -0.43,-0.092 -0.578,-0.241 -0.148,-0.148 -0.24,-0.352 -0.24,-0.577l0 -1.194c0,-0.225 0.092,-0.43 0.24,-0.578 0.148,-0.148 0.353,-0.24 0.578,-0.24zm0.28 0.264c-0.05,-0.019 -0.096,-0.024 -0.138,-0.021 -0.049,0.005 -0.092,0.022 -0.125,0.045 -0.045,0.03 -0.077,0.072 -0.091,0.113 -0.007,0.02 -0.01,0.04 -0.007,0.056 0.003,0.014 0.01,0.027 0.022,0.036 0.015,0.011 0.039,0.018 0.073,0.017 0.021,0 0.037,-0.007 0.047,-0.017 0.011,-0.01 0.017,-0.023 0.02,-0.037 0.004,-0.015 0.004,-0.031 0.001,-0.045 -0.004,-0.014 -0.009,-0.025 -0.016,-0.029 -0.015,-0.009 -0.02,-0.028 -0.011,-0.043 0.009,-0.014 0.028,-0.019 0.042,-0.01 0.022,0.013 0.038,0.039 0.045,0.068 0.005,0.023 0.005,0.049 -0.001,0.073 -0.005,0.025 -0.018,0.049 -0.037,0.068 -0.021,0.02 -0.051,0.033 -0.089,0.034 -0.049,0 -0.085,-0.011 -0.111,-0.03 -0.025,-0.019 -0.04,-0.045 -0.045,-0.074 -0.005,-0.027 -0.002,-0.057 0.009,-0.087 0.018,-0.053 0.059,-0.107 0.115,-0.144 0.021,-0.015 0.045,-0.027 0.072,-0.037 -0.018,-0.002 -0.037,-0.002 -0.055,-0.002 -0.172,0 -0.327,0.069 -0.439,0.181 -0.112,0.112 -0.182,0.268 -0.182,0.439 0,0.171 0.07,0.326 0.182,0.439 0.112,0.112 0.267,0.181 0.439,0.181 0.171,0 0.326,-0.069 0.438,-0.181 0.113,-0.113 0.182,-0.268 0.182,-0.439 0,-0.171 -0.069,-0.327 -0.182,-0.439 -0.046,-0.046 -0.099,-0.085 -0.158,-0.115z"/></g><text x="0" y="17.83" fill="#000000" font-size="5px" font-weight="bold" font-family="'Helvetica Neue', Helvetica, Arial-Unicode, Arial, Sans-serif">Created by Deemak Daksina</text><text x="0" y="22.83" fill="#000000" font-size="5px" font-weight="bold" font-family="'Helvetica Neue', Helvetica, Arial-Unicode, Arial, Sans-serif">from the Noun Project</text></svg>